<?xml version="1.0" encoding="UTF-8"?>
<svg width="26px" height="27px" viewBox="0 0 26 27" version="1.1" xmlns="http://www.w3.org/2000/svg" xmlns:xlink="http://www.w3.org/1999/xlink">
    <title>Group 7</title>
    <g id="Home-&amp;-Menu" stroke="none" stroke-width="1" fill="none" fill-rule="evenodd">
        <g id="Home" transform="translate(-1214.000000, -3235.000000)">
            <g id="Group-8" transform="translate(1215.000000, 3235.000000)">
                <g id="Group-7" transform="translate(0.000000, 1.100000)">
                    <path d="M7.180767,0.073755 C5.880105,0.132759 4.992273,0.339372 4.214925,0.641421 C3.411441,0.953568 2.730222,1.371447 2.051082,2.050686 C1.371447,2.730024 0.953766,3.411243 0.641817,4.214727 C0.339471,4.991976 0.132957,5.880105 0.073953,7.180569 C0.014157,8.483706 4.28101998e-13,8.899605 4.28101998e-13,12.218085 C4.28101998e-13,15.536367 0.014157,15.952266 0.073953,17.255601 C0.132957,18.556164 0.339471,19.444095 0.641817,20.221047 C0.953766,21.024729 1.371447,21.706146 2.051082,22.385286 C2.730222,23.064624 3.411441,23.482206 4.214925,23.79465 C4.992273,24.096798 5.880105,24.303213 7.180767,24.362415 C8.484102,24.421914 8.899902,24.43617 12.218085,24.43617 C15.536664,24.43617 15.952563,24.421914 17.255799,24.362415 C18.556164,24.303213 19.444392,24.096798 20.221839,23.79465 C21.024729,23.482206 21.706542,23.064624 22.385682,22.385286 C23.064822,21.706146 23.482404,21.024729 23.794848,20.221047 C24.096798,19.444095 24.303609,18.556164 24.362811,17.255601 C24.42231,15.952266 24.43617,15.536367 24.43617,12.218085 C24.43617,8.899605 24.42231,8.483706 24.362811,7.180569 C24.303609,5.880105 24.096798,4.991976 23.794848,4.214727 C23.482404,3.411243 23.064822,2.730024 22.385682,2.050686 C21.706542,1.371447 21.024729,0.953568 20.221839,0.641421 C19.444392,0.339372 18.556164,0.132759 17.255799,0.073755 C15.952563,0.014157 15.536664,-3.19744231e-14 12.218085,-3.19744231e-14 C8.899902,-3.19744231e-14 8.484102,0.014157 7.180767,0.073755" id="Stroke-7" stroke="#000000" stroke-linejoin="bevel"></path>
                    <path d="M7.3155357,12.218085 C7.3155357,9.510336 9.5103657,7.315407 12.2181147,7.315407 C14.9259627,7.315407 17.1209907,9.510336 17.1209907,12.218085 C17.1209907,14.926032 14.9259627,17.120763 12.2181147,17.120763 C9.5103657,17.120763 7.3155357,14.926032 7.3155357,12.218085" id="Stroke-9" stroke="#000000" stroke-linejoin="bevel"></path>
                    <path d="M16.9402959,5.4946881 C16.9402959,4.5239931 17.7270489,3.7372401 18.6976449,3.7372401 C19.6683399,3.7372401 20.4551919,4.5239931 20.4551919,5.4946881 C20.4551919,6.4653831 19.6683399,7.2521361 18.6976449,7.2521361 C17.7270489,7.2521361 16.9402959,6.4653831 16.9402959,5.4946881" id="Stroke-11" fill="#000000"></path>
                </g>
            </g>
        </g>
    </g>
</svg>